# xmcd
#
# Track frame offsets:
#	150
#	18412
#	39012
#
# Disc length: 974 seconds
#
# Revision: 1
# Processed by: cddbd v1.5PL3 Copyright (c) Steve Scherf et al.
# Submitted via: CDex 1.50Beta5
#
DISCID=1403cc03
DTITLE=Mariah Carey - All I Want For Christmas Is You
DYEAR=1900
DGENRE=Pop
TTITLE0=All I Want For Christmas Is You
TTITLE1=Miss You Most (At Christmas Time)
TTITLE2=Joy To The World (Club Mix)
EXTD=
EXTT0=
EXTT1=
EXTT2=
PLAYORDER=
